<?xml version="1.0" standalone="no"?>
<!DOCTYPE svg PUBLIC "-//W3C//DTD SVG 1.1//EN" "http://www.w3.org/Graphics/SVG/1.1/DTD/svg11.dtd" >
<svg xmlns="http://www.w3.org/2000/svg">
<metadata>
Created by FontForge 20120731 at Wed Dec 14 15:05:15 2016
 By admin
</metadata>
<defs>
<font id="iconfont" horiz-adv-x="1024" >
  <font-face 
    font-family="iconfont"
    font-weight="500"
    font-stretch="normal"
    units-per-em="1024"
    panose-1="2 0 6 3 0 0 0 0 0 0"
    ascent="896"
    descent="-128"
    x-height="792"
    bbox="17.5195 -128 1013 896"
    underline-thickness="0"
    underline-position="0"
    unicode-range="U+0078-E749"
  />
<missing-glyph 
 />
    <glyph glyph-name=".notdef" 
 />
    <glyph glyph-name=".notdef" 
 />
    <glyph glyph-name=".null" horiz-adv-x="0" 
 />
    <glyph glyph-name="nonmarkingreturn" horiz-adv-x="341" 
 />
    <glyph glyph-name="x" unicode="x" horiz-adv-x="1001" 
d="M281 543q-27 -1 -53 -1h-83q-18 0 -36.5 -6t-32.5 -18.5t-23 -32t-9 -45.5v-76h912v41q0 16 -0.5 30t-0.5 18q0 13 -5 29t-17 29.5t-31.5 22.5t-49.5 9h-133v-97h-438v97zM955 310v-52q0 -23 0.5 -52t0.5 -58t-10.5 -47.5t-26 -30t-33 -16t-31.5 -4.5q-14 -1 -29.5 -0.5
t-29.5 0.5h-32l-45 128h-439l-44 -128h-29h-34q-20 0 -45 1q-25 0 -41 9.5t-25.5 23t-13.5 29.5t-4 30v167h911zM163 247q-12 0 -21 -8.5t-9 -21.5t9 -21.5t21 -8.5q13 0 22 8.5t9 21.5t-9 21.5t-22 8.5zM316 123q-8 -26 -14 -48q-5 -19 -10.5 -37t-7.5 -25t-3 -15t1 -14.5
t9.5 -10.5t21.5 -4h37h67h81h80h64h36q23 0 34 12t2 38q-5 13 -9.5 30.5t-9.5 34.5q-5 19 -11 39h-368zM336 498v228q0 11 2.5 23t10 21.5t20.5 15.5t34 6h188q31 0 51.5 -14.5t20.5 -52.5v-227h-327z" />
    <glyph glyph-name="event" unicode="&#xe61b;" 
d="M886 674h-118v-20q0 -18 -13 -31t-31 -13h-41q-18 0 -30.5 13t-12.5 31v20h-258v-20q0 -18 -13 -31t-31 -13h-41q-18 0 -30.5 13t-12.5 31v20h-119q-18 0 -30.5 -12.5t-12.5 -30.5v-588q0 -19 12.5 -31.5t30.5 -12.5h751q18 0 31 12.5t13 31.5v588q0 18 -13 30.5
t-31 12.5zM865 86q0 -9 -6.5 -15.5t-15.5 -6.5h-664q-9 0 -15.5 6.5t-6.5 15.5v438q0 9 6.5 15.5t15.5 6.5h664q9 0 15.5 -6.5t6.5 -15.5v-438zM361 417h-85q-9 0 -15.5 -6.5t-6.5 -15.5v-20q0 -9 6.5 -15.5t15.5 -6.5h85q9 0 15.5 6.5t6.5 15.5v20q0 9 -6.5 15.5t-15.5 6.5
zM554 417h-85q-9 0 -15.5 -6.5t-6.5 -15.5v-20q0 -9 6.5 -15.5t15.5 -6.5h85q9 0 15.5 6.5t6.5 15.5v20q0 9 -6.5 15.5t-15.5 6.5zM554 257h-85q-9 0 -15.5 -6.5t-6.5 -15.5v-21q0 -9 6.5 -15.5t15.5 -6.5h85q9 0 15.5 6.5t6.5 15.5v21q0 9 -6.5 15.5t-15.5 6.5zM361 257
h-85q-9 0 -15.5 -6.5t-6.5 -15.5v-21q0 -9 6.5 -15.5t15.5 -6.5h85q9 0 15.5 6.5t6.5 15.5v21q0 9 -6.5 15.5t-15.5 6.5zM796 450q-8 7 -17.5 7.5t-15.5 -5.5l-67 -67l-22 21q-6 7 -15 7t-16 -7l-5 -5q-7 -7 -7 -16t7 -15l43 -44q7 -6 16 -6t15 6l88 89q7 6 6 15.5t-8 16.5z
M308 642h20q9 0 15.5 6.5t6.5 15.5v85q0 9 -6.5 15.5t-15.5 6.5h-20q-9 0 -15.5 -6.5t-6.5 -15.5v-85q0 -9 6.5 -15.5t15.5 -6.5zM694 642h20q9 0 15.5 6.5t6.5 15.5v85q0 9 -6.5 15.5t-15.5 6.5h-20q-9 0 -15.5 -6.5t-6.5 -15.5v-85q0 -9 6.5 -15.5t15.5 -6.5z" />
    <glyph glyph-name="profile" unicode="&#xe661;" 
d="M517 830q-91 0 -173.5 -35.5t-142.5 -95t-95 -142t-35 -173.5t35 -173.5t95 -142.5t142.5 -95t173.5 -35t173.5 35t142 95t95 142.5t35.5 173.5t-35 173.5t-95 142t-142.5 95t-173.5 35.5zM448 240q-11 11 -23 41.5t-18 56.5q-2 7 -10 12.5t-15 13.5t-7 22q-6 5 -7 14
t1 16t4 17t2 16v24v25t0.5 21.5t2.5 22.5t5 17.5t8 16.5q32 46 80 63t95.5 0t78.5 -63q7 -11 10.5 -27.5t4 -27.5t-0.5 -35.5t-1 -34.5q0 -6 3 -21.5t3.5 -23t-6.5 -18.5q0 -14 -7.5 -23t-15.5 -15t-9 -10q-3 -22 -17.5 -55t-24.5 -44q-7 -9 -5 -39t9 -46q23 -52 67 -79
t94 -35q-105 -71 -231 -71h-1q-124 0 -226 68q17 4 35.5 10.5t42 20t44 37.5t33.5 55q5 14 8.5 28t2.5 28.5t-9 21.5zM781 66q-20 1 -40 5t-46 14.5t-49 32t-36 52.5q-17 37 0 56q10 11 21 38.5t16 53.5q0 5 9.5 11.5t18 17.5t9.5 27q5 6 6.5 16t-0.5 19t-4 20.5t-2 18.5
q2 38 -0.5 81t-18.5 67q-36 54 -91.5 73.5t-111.5 0t-93 -73.5q-6 -8 -10 -19.5t-5.5 -20.5t-2.5 -26t-1 -25.5v-29v-27.5t-2.5 -18.5t-5 -20.5t-1 -19t8.5 -16q0 -16 8 -25.5t17.5 -16t11.5 -14.5q17 -72 37 -92q6 -6 8.5 -10.5t2 -11t-1 -9.5t-4.5 -12.5t-5 -12.5
q-9 -28 -29.5 -49t-46.5 -33t-46.5 -18t-41.5 -9q-73 58 -114.5 142.5t-41.5 180.5q0 112 55.5 207t150.5 150.5t207 55.5t207 -55.5t150.5 -150.5t55.5 -207q0 -94 -40 -177t-109 -141z" />
    <glyph glyph-name="payment" unicode="&#xe62f;" 
d="M512 725q88 0 165.5 -33.5t134.5 -91t90.5 -135t33.5 -165.5t-33.5 -165t-90.5 -134.5t-134.5 -91t-165.5 -33.5t-165 33.5t-134.5 91t-91 134.5t-33.5 165t33.5 165.5t91 135t134.5 91t165 33.5zM761 107q5 15 8 33t5 38q-14 5 -28 11l-28 12q-1 -13 -3 -28t-5 -35
q-5 -31 -45 -31h-31q-41 -3 -38 35v139l78 2l36 -36l46 41q-40 36 -79.5 70.5t-78.5 67.5l-40 -31q5 -5 13 -11.5t18 -16.5q22 -20 32 -32l-242 -6q55 46 131 122h257v56h-216q-1 3 -2 9l-4 14q-5 17 -9 27t-5 16l-67 -7q2 -5 5 -15t8 -25t6 -19h-237v-56h184
q-48 -54 -98 -94q-23 -22 -53 -35l29 -57q8 2 24 4t43 4h24q0 -76 -33 -110q-30 -36 -127 -67q2 -4 5 -8.5t8 -11.5q8 -12 13.5 -20t8.5 -14q199 61 187 236l75 3v-156q-2 -72 73 -69h67q73 -3 85 51z" />
    <glyph glyph-name="customer" unicode="&#xe636;" 
d="M500 165q-38 0 -67.5 20.5t-38.5 52.5h-26q10 -42 47 -70t85 -28t85 28t46 70h-25q-10 -32 -39 -52.5t-67 -20.5zM317 396q0 -15 10.5 -25.5t26 -10.5t26 10.5t10.5 25.5t-10.5 26t-26 11t-26 -11t-10.5 -26zM585 396q0 -15 11 -25.5t26 -10.5t25.5 10.5t10.5 25.5
t-10.5 26t-25.5 11t-26 -11t-11 -26zM637 30q72 41 111 114q19 5 38 13t45 26t43.5 41.5t25.5 61.5t-1 84t-44 111.5t-95 141.5q-32 78 -102.5 126.5t-157.5 48.5h-25q-87 0 -158 -49t-102 -127q-60 -82 -94 -151.5t-42.5 -116.5t-0.5 -84.5t25 -59.5t43 -37.5t44.5 -21.5
t37.5 -9q41 -76 117 -116q-162 -34 -280 -130h83q155 98 351.5 98t351.5 -98h84q-126 102 -298 134v0zM475 43q-92 0 -159 64t-72 156q-31 5 -52 28.5t-21 55.5t21 56t52 29v61q27 -12 57 -12.5t59 9.5t55.5 23t51.5 31.5t41.5 33t31.5 29.5q12 -86 -28 -125q4 0 10.5 1.5
t24 8t31 16.5t25.5 28.5t13 42.5q6 -3 10 -6q27 -62 -16 -91q3 0 8.5 1t20 6t26 12t22 21t13.5 31q14 -1 29 -1q2 -19 2 -34v-86q32 -5 53 -29t21 -56t-21.5 -55.5t-52.5 -28.5q-4 -92 -71 -156t-160 -64h-25v0z" />
    <glyph glyph-name="add" unicode="&#xe6b5;" 
d="M899 350h-331v-332h-111v332h-331v110h331v332h111v-332h331v-110z" />
    <glyph glyph-name="view" unicode="&#xe62d;" 
d="M274 235v-44q0 -9 6.5 -15.5t15.5 -6.5h102q-15 43 -15 87h-87q-9 0 -15.5 -6t-6.5 -15zM450 431h-154q-9 0 -15.5 -6t-6.5 -15v-44q0 -9 6.5 -15.5t15.5 -6.5h102q18 49 52 87zM450 82h-198q-18 0 -31 12.5t-13 30.5v525q0 18 13 31t31 13h437q18 0 31 -13t13 -31v-146
q49 -18 87 -52v242q0 36 -25.5 61.5t-61.5 25.5h-525q-36 0 -61.5 -25.5t-25.5 -61.5v-612q0 -37 25.5 -62.5t61.5 -25.5h437q-57 0 -107.5 23t-87.5 65zM667 541v43q0 9 -6.5 15.5t-15.5 6.5h-349q-9 0 -15.5 -6.5t-6.5 -15.5v-43q0 -9 6.5 -15.5t15.5 -6.5h349
q9 0 15.5 6.5t6.5 15.5zM895 68l-67 68q36 55 36 120q0 91 -64 155t-154.5 64t-154.5 -64t-64 -154.5t64 -154.5t154 -64q66 0 121 36l68 -67q9 -10 22.5 -10t23.5 10l15 15q10 10 10 23.5t-10 22.5zM645.5 125q-54.5 0 -93 38.5t-38.5 93t38.5 93t93 38.5t93 -38.5
t38.5 -93t-38.5 -93t-93 -38.5z" />
    <glyph glyph-name="receptionist" unicode="&#xe688;" 
d="M696 418q-10 69 -62 115.5t-122 46.5t-122 -46.5t-62 -115.5h-214v-93h56v-363h677v363h64v93h-215zM512 547q57 0 99.5 -36.5t52.5 -92.5h-304q10 56 52.5 92.5t99.5 36.5zM878 354h-63v-361h-613l-1 332v29h-55v29h732v-29v0zM519.5 588q42.5 0 72 30t29.5 72t-29.5 72
t-72 30t-72 -30t-29.5 -72t29.5 -72t72 -30zM519.5 760q28.5 0 49 -20.5t20.5 -49.5t-20.5 -49t-49 -20t-49 20t-20.5 49t20.5 49.5t49 20.5z" />
    <glyph glyph-name="address" unicode="&#xe617;" 
d="M901 123q0 -37 -58 -65t-144.5 -41.5t-186.5 -13.5t-187 13.5t-144.5 41.5t-57.5 65q0 25 23.5 45t61.5 32.5t68.5 19.5t61.5 12q8 1 13.5 -3.5t6.5 -11.5t-3 -13t-12 -7q-62 -9 -106.5 -23.5t-61.5 -27t-17 -23.5q0 -18 42 -37t126 -33t185.5 -14t186 14t126 33t41.5 37
q0 11 -17 23.5t-61.5 27t-108.5 23.5q-7 1 -11.5 7t-3.5 13t7 11.5t13 3.5q32 -4 63 -11t69 -19.5t62 -33t24 -45.5zM437 542q0 31 22 53t53 22t52.5 -22t21.5 -53t-21.5 -53t-52.5 -22t-53 22t-22 53zM622 542q0 45 -32.5 77.5t-78 32.5t-77.5 -32.5t-32 -77.5t32 -77.5
t77.5 -32.5t78 32.5t32.5 77.5zM511.5 731q81.5 0 139 -57.5t57.5 -138.5q0 -53 -23 -112.5t-59.5 -111.5t-63 -84t-50.5 -57q-25 25 -51 56t-63 83t-60 112t-23 114q0 81 57.5 138.5t139 57.5zM500 132l12 -12l12 12q11 10 27 27t53 63t65.5 91.5t51.5 106.5t23 115
q0 96 -68 164t-164 68t-164 -68t-68 -164q0 -55 23 -116.5t51 -107t65 -91t53.5 -62t27.5 -26.5z" />
    <glyph glyph-name="wallet-o" unicode="&#xe600;" horiz-adv-x="1153" 
d="M648 -126q-26 -2 -58 -2t-51 1l-19 1q-7 0 -19.5 1t-49 7.5t-70 16.5t-74 32t-69.5 51t-49 76t-20 104q0 78 35 154.5t84.5 129t99.5 94.5t85 62l34 20h155q7 -4 18.5 -12.5t45 -36t63.5 -56t67.5 -72.5t64 -87t45 -96.5t18.5 -104.5t-18.5 -94t-48.5 -71.5t-65.5 -51
t-71.5 -35t-65.5 -20t-48 -10t-18.5 -1.5v0v0zM507 640v55h156v-55h-156zM660 713h-150l-80 181q47 -37 76 -37q13 0 33 9.5t33 18.5l13 10q46 -38 75 -38q13 0 32.5 10t33.5 19l13 10zM538 33h70v68h94v55h-94v30h94v55h-66l78 157h-76l-51 -106q-9 -19 -14 -35
q-4 15 -13 35l-50 106h-77l78 -157h-65v-55h92v-30h-92v-55h92v-68v0zM538 33z" />
    <glyph glyph-name="empty5" unicode="&#xe631;" 
d="M813 -21h-25v-17h43v43h-18v-26zM665 -21h61v-17h-61v17zM543 -21h61v-17h-61v17zM420 -21h61v-17h-61v17zM298 -21h61v-17h-61v17zM211 5h-18v-43h43v17h-25v26zM193 694h18v-69h-18v69zM193 143h18v-69h-18v69zM193 556h18v-69h-18v69zM193 418h18v-68h-18v68zM193 281
h18v-69h-18v69zM193 763h18v26h25v17h-43v-43zM298 806h61v-17h-61v17zM543 806h61v-17h-61v17zM420 806h61v-17h-61v17zM813 551h18v-69h-18v69zM813 143h18v-69h-18v69zM813 281h18v-69h-18v69zM813 418h18v-68h-18v68zM658 806v-172h155v-27h18v27z" />
    <glyph glyph-name="edit" unicode="&#xe62e;" 
d="M569 755l-95 38q-19 9 -40 2t-31 -25l-273 -555q-1 -4 -1 -7l2 -180q0 -9 8 -13q3 -2 7 -2t8 3l162 102q4 2 6 6l273 564q9 18 2 38t-28 29v0v0zM867 604h-208q-8 0 -14 5.5t-6 13t6 13t14 5.5h208q8 0 14 -5.5t6 -13t-6 -13t-14 -5.5v0v0zM876 435h-285q-8 0 -13.5 5.5
t-5.5 13.5t5.5 13.5t13.5 5.5h285q8 0 14 -5.5t6 -13.5t-6 -13.5t-14 -5.5v0v0zM876 267h-353q-8 0 -13.5 5.5t-5.5 13.5t5.5 13t13.5 5h353q8 0 14 -5t6 -13t-6 -13.5t-14 -5.5v0v0zM876 267z" />
    <glyph glyph-name="stream" unicode="&#xe6db;" 
d="M315 452h-242q-4 0 -7.5 3.5t-3.5 7.5v236q0 4 3.5 7.5t7.5 3.5h237q4 0 7.5 -3.5t3.5 -7.5v-236q3 -4 1 -7.5t-7 -3.5zM90 474h208v208h-208v-208zM951 682h-478q-5 0 -8.5 3.5t-3.5 8t3.5 8t8.5 3.5h478q4 0 7.5 -3.5t3.5 -8t-3.5 -8t-7.5 -3.5zM748 525h-275
q-5 0 -8.5 3.5t-3.5 7.5t3.5 7.5t8.5 3.5h275q4 0 8 -3.5t4 -7.5q0 -11 -12 -11zM315 58h-242q-4 0 -7.5 3.5t-3.5 7.5v236q0 4 3.5 7.5t7.5 3.5h237q4 0 7.5 -3.5t3.5 -7.5v-236q3 -4 1 -7.5t-7 -3.5zM90 86h208v208h-208v-208zM951 294h-478q-5 0 -8.5 3.5t-3.5 7.5
t3.5 7.5t8.5 3.5h478q4 0 7.5 -3.5t3.5 -7.5t-3.5 -7.5t-7.5 -3.5zM748 136h-275q-5 0 -8.5 4t-3.5 8t3.5 7.5t8.5 3.5h275q4 0 8 -3.5t4 -7.5q4 -4 0.5 -8t-12.5 -4z" />
    <glyph glyph-name="store" unicode="&#xe66e;" 
d="M194 569h88v-29h-88v29zM223 598h88v-29h-88v29zM252 627h88v-29h-88v29zM282 656h87v-29h-87v29zM311 686h87v-30h-87v30zM340 715h87v-30h-87v30zM369 744h87v-29h-87v29zM398 773h88v-29h-88v29zM369 744h87v-29h-87v29zM398 773h88v-29h-88v29zM427 802h88v-29h-88
v29zM486 831h87v-29h-87v29zM748 569h87v-29h-87v29zM719 598h87v-29h-87v29zM689 627h88v-29h-88v29zM660 656h88v-29h-88v29zM631 686h88v-30h-88v30zM602 715h87v-30h-87v30zM573 744h87v-29h-87v29zM544 773h87v-29h-87v29zM515 802h87v-29h-87v29zM456 831h88v-29h-88
v29zM486 860h58v-58h-58v58zM748 278h29v-29h-29v29zM49 540v-641h932v641h-932zM311 278h-59v-29h59v-146h-117v58h58v29h-58v146h117v-58v0zM486 249v-146h-59v87h-29v-87h-58v233h58v-87h29v87h59v-87zM660 103h-145v233h145v-233zM835 190h-87v-87h-59v233h146v-146v0z
M573 278h29v-117h-29v117z" />
    <glyph glyph-name="shop" unicode="&#xe605;" 
d="M947 430l-349 348q-35 36 -86 36t-86 -36l-349 -348q-12 -12 -12 -29t12 -29t29 -12t29 12l8 8v-324q0 -42 29.5 -72t71.5 -30h91q42 0 72 30t30 72v110q0 8 6 14t14 6h171q17 0 29 12t12 29t-12 28.5t-29 11.5h-171q-42 0 -72 -29.5t-30 -71.5v-110q0 -9 -6 -15t-14 -6
h-91q-8 0 -14 6t-6 15v405l259 260q12 12 29 12t29 -12l348 -349q12 -12 29 -12t29 12t12 29t-12 29zM841 353q-17 0 -29 -12t-12 -29v-256q0 -9 -6 -15t-14 -6h-152q-17 0 -29 -11.5t-12 -28.5t12 -29t29 -12h152q42 0 71.5 30t29.5 72v256q0 17 -11.5 29t-28.5 12z" />
    <glyph glyph-name="money" unicode="&#xe667;" 
d="M508 -97q-97 0 -185 36.5t-156.5 105t-105 156.5t-36.5 184.5t36.5 185t105 156.5t156.5 104.5t185 36.5q157 0 283 -92q10 -7 11.5 -18.5t-5.5 -21t-18.5 -11.5t-21.5 5q-111 81 -249 81q-115 0 -213 -57t-155 -155t-57 -213.5t57 -213t155 -154.5t213 -57t213 57
t155 154.5t57 213.5q0 120 -62 221q-6 10 -3.5 21.5t13 18t22 3.5t17.5 -13q70 -115 70 -251q0 -97 -36.5 -185t-104.5 -156.5t-156 -105t-185 -36.5v0v0zM732 320h-165v68l165 1q16 1 26 12.5t11 27.5q-1 15 -11 25q-9 10 -25 12h-138l97 133q12 17 12 35q-2 13 -6 21
t-10 12q-6 5 -14 7q-7 2 -17 2q-14 -1 -26 -10q-12 -8 -20 -19l-104 -151l-94 150q-8 11 -20 20q-11 9 -26 10q-26 -3 -35.5 -14t-12.5 -28q0 -14 5 -26q6 -11 12 -19l84 -123h-136q-17 -2 -26 -12t-11 -25q2 -17 11 -27t26 -12h166v-70h-166q-17 -1 -26 -11.5t-11 -25.5
q2 -16 11 -28q9 -13 26 -14h166v-149q1 -27 16.5 -40t42.5 -13q56 0 58 53v150l165 -1q16 1 26 12q9 11 10 27q-1 16 -10 27t-26 13z" />
    <glyph glyph-name="empty2" unicode="&#xe618;" 
d="M403 465h101q8 0 8 8t-8 8h-101q-9 0 -9 -8t9 -8zM403 414h218q9 0 9 8.5t-9 8.5h-218q-9 0 -9 -8.5t9 -8.5zM680 566h-336q-7 0 -12 -5t-5 -12v-269l84 -85h269q7 0 12 5t5 12v337q0 7 -5 12t-12 5zM411 221l-59 59h59v-59zM680 212h-252v76q0 8 -9 8h-75v253h336v-337z
M403 364h168q8 0 8 8t-8 8h-168q-9 0 -9 -8t9 -8zM288 741l-10 16q-35 -22 -65 -49l13 -14q29 27 62 47zM174 636l-15 12q-25 -33 -43 -69l17 -9q18 35 41 66zM106 498l-19 5q-11 -39 -14 -80l19 -2q3 39 14 77zM432 798l-4 18q-40 -8 -78 -23l7 -17q36 15 75 22zM512 806
q39 0 77 -7l3 17q-40 7 -80 7h-1h-2l1 -17h1h1zM848 639l14 10q-24 32 -54 60l-12 -13q29 -26 52 -57zM92 344l-19 -2q4 -41 15 -80l18 6q-10 37 -14 76zM734 743l9 15q-35 21 -73 36l-6 -16q36 -14 70 -35zM918 500l17 5q-12 39 -30 75l-15 -8q17 -35 28 -72zM797 73
l11 -13q30 27 55 60l-14 10q-24 -31 -52 -57zM135 196l-18 -9q19 -36 43 -69l15 12q-23 31 -40 66zM890 196l16 -7q18 36 29 75l-17 5q-11 -37 -28 -73zM950 425l-18 -2q2 -20 2 -39t-2 -38l18 -2q1 20 1 40q0 21 -1 41zM665 -9l6 -17q38 15 73 37l-10 14q-33 -20 -69 -34v0
zM228 72l-13 -14q31 -27 65 -48l10 15q-33 21 -62 47zM512 -38v-17q41 0 81 7l-3 17q-39 -7 -78 -7zM360 -9l-7 -17q38 -15 78 -22l3 17q-38 7 -74 22z" />
    <glyph glyph-name="health-record" unicode="&#xe601;" 
d="M274 433q-22 0 -38 15.5t-16 38t16 38.5t38 16t38 -16t16 -38.5t-16 -38t-38 -15.5zM274 505q-7 0 -12.5 -5.5t-5.5 -13t5.5 -12.5t12.5 -5t12.5 5t5.5 12.5t-5.5 13t-12.5 5.5zM274 235q-22 0 -38 16t-16 38t16 38t38 16t38 -16t16 -38t-16 -38t-38 -16zM274 307
q-7 0 -12.5 -5.5t-5.5 -12.5t5.5 -12.5t12.5 -5.5t12.5 5.5t5.5 12.5t-5.5 12.5t-12.5 5.5zM421 435q30 34 68 59q-3 20 -18 33.5t-35 13.5q-23 0 -38.5 -16t-15.5 -38q0 -18 11 -32.5t28 -19.5zM435.5 505q7.5 0 13 -5.5t5.5 -13t-5.5 -12.5t-13 -5t-12.5 5t-5 12.5t5 13
t12.5 5.5zM382 91h-216q-15 0 -25.5 10.5t-10.5 25.5v539q0 15 10.5 25.5t25.5 10.5h36q0 -22 16 -38t38 -16t38 16t16 38h72q0 -22 15.5 -38t38 -16t38.5 16t16 38h72q0 -22 15.5 -38t38 -16t38 16t15.5 38h36q15 0 25.5 -10.5t10.5 -25.5v-139q17 -5 36 -14v153
q0 30 -21 51t-51 21h-36q0 23 -15.5 38.5t-38 15.5t-38 -15.5t-15.5 -38.5h-72q0 23 -16 38.5t-38.5 15.5t-38 -15.5t-15.5 -38.5h-72q0 23 -16 38.5t-38 15.5t-38 -15.5t-16 -38.5h-36q-30 0 -51 -21t-21 -51v-539q0 -30 21 -51t51 -21h239q-14 19 -23 36v0zM598 738
q0 8 5 13t12.5 5t13 -5t5.5 -13v-36q0 -7 -5.5 -12.5t-13 -5.5t-12.5 5.5t-5 12.5v36zM418 738q0 8 5 13t12.5 5t13 -5t5.5 -13v-36q0 -7 -5.5 -12.5t-13 -5.5t-12.5 5.5t-5 12.5v36zM238 738q0 8 5.5 13t13 5t12.5 -5t5 -13v-36q0 -7 -5 -12.5t-12.5 -5.5t-13 5.5
t-5.5 12.5v36zM651.5 505q-111.5 0 -190.5 -79t-79 -191t79 -191t190.5 -79t190.5 79t79 191t-79 191t-190.5 79zM651.5 1q-96.5 0 -165 68.5t-68.5 165.5t68.5 165.5t165 68.5t165 -68.5t68.5 -165.5t-68.5 -165.5t-165 -68.5zM651.5 415q-7.5 0 -12.5 -5.5t-5 -12.5v-144
q0 -4 2 -9q6 9 15.5 9t15.5 -9q2 5 2 9v144q0 7 -5 12.5t-12.5 5.5zM813 253h-111q-5 16 -19 26t-32 10q-22 0 -37.5 -16t-15.5 -38t15.5 -38t37.5 -16q18 0 32 10t19 26h111q8 0 13 5.5t5 13t-5 12.5t-13 5zM651.5 217q-7.5 0 -12.5 5.5t-5 13t5 12.5t12.5 5t12.5 -5
t5 -12.5t-5 -13t-12.5 -5.5z" />
    <glyph glyph-name="empty4" unicode="&#xe638;" 
d="M576 -66h-261q-8 0 -8 7.5t8 7.5h261q7 0 7 -7.5t-7 -7.5zM659 720q-15 0 -18 14l-15 63q-1 7 3 13.5t11.5 8.5t14 -2t7.5 -12l15 -63q2 -7 -2 -13.5t-12 -8.5h-4zM864 558h-3l-64 13q-7 1 -11.5 7.5t-3 14t8 11.5t14.5 3l63 -13q8 -1 12 -7.5t2 -14.5q-3 -14 -18 -14z
M763 684q-8 0 -14 7q-5 6 -4 13.5t7 12.5l54 45q6 5 13.5 4t12.5 -6.5t4 -13.5t-6 -13l-55 -44q-5 -5 -12 -5zM832 -14h-442l59 21q8 3 11.5 10.5t0.5 15.5l-40 111q-2 8 -10 12t-16 1l-111 -40q-8 -3 -11.5 -10.5t-0.5 -15.5l39 -111q1 -3 3 -6q2 -6 9 -6q7 -3 14 -1l1 1
h494q9 0 9 9t-9 9v0zM493 44q3 -8 10.5 -11.5t15.5 -0.5l112 40q8 3 11.5 10.5t0.5 15.5l-40 111q-2 8 -10 11.5t-16 1.5l-111 -40q-8 -3 -11.5 -10.5t-0.5 -15.5zM387 180q8 3 11.5 10.5t0.5 15.5l-39 111q-3 8 -10.5 12t-15.5 1l-112 -40q-8 -3 -11.5 -10.5t-0.5 -15.5
l40 -111q2 -8 10 -12t16 -1zM392 329l40 -112q3 -7 10.5 -11t15.5 -1l111 40q8 3 11.5 10.5t0.5 15.5l-39 111q-3 8 -10.5 12t-15.5 1l-112 -40q-8 -3 -11.5 -10.5t-0.5 -15.5zM760 287l-112 -40q-8 -3 -11.5 -10.5t-0.5 -15.5l39 -112q3 -8 11 -11.5t15 -0.5l112 40
q8 3 11.5 10.5t0.5 15.5l-39 111q-3 8 -11 11.5t-15 1.5zM570 395v-2l7 -20q1 -3 4 -3q1 0 1 1q4 1 3 5l-7 19q-1 1 -1 2q-1 4 -4.5 3t-2.5 -5zM590 425l-5 -2q-10 -3 -14 -13q-2 -4 2 -5q0 -1 1 -1q3 0 4 3q3 7 10 9l5 2q4 1 2.5 5t-5.5 2zM699.5 460.5q0.5 -3.5 4.5 -3.5
q10 1 15 -9q1 -2 4 -2q1 0 1 1q4 1 2 5q-7 13 -21 13h-2q-4 -1 -3.5 -4.5zM729 298h2l22 8q3 1 2 5t-5 2l-22 -7q-3 -2 -2 -5t3 -3zM735 404l8 -22q1 -2 4 -2h1q3 1 2 5l-8 21q-1 4 -4.5 3t-2.5 -5zM759 337l1 -2q1 -3 1 -6q0 -6 -3 -10q-3 -3 0 -5q1 -1 3 -1q1 0 3 1
q5 7 5 15q0 4 -2 8l-1 3q-1 3 -4.5 2t-2.5 -5zM723 437l8 -21q1 -3 4 -3h1q4 1 2 5l-7 22q-2 3 -5.5 2t-2.5 -5zM747 371l8 -22q1 -3 3 -3h2q3 2 2 5l-8 22q-1 4 -4.5 2.5t-2.5 -4.5zM610 281q2 -5 6 -9q1 -1 2.5 -1t2.5 1q3 3 0 6q-2 2 -4 6l-4 13q-2 4 -5.5 2.5t-2.5 -4.5
zM693 289q0 -3 3 -3q1 0 1 1l22 7q4 2 2.5 5.5t-4.5 2.5l-22 -8q-4 -1 -2 -5zM657 449l-22 -8q-3 -1 -2 -4t4 -3h1l22 8q3 1 2 4.5t-5 2.5zM683 290l-22 -8q-3 -1 -2 -5q1 -3 4 -3l1 1l22 7q3 2 2 5.5t-5 2.5zM690 461l-21 -8q-4 -1 -3 -5q1 -2 4 -2h1l22 8q4 1 2.5 4.5
t-5.5 2.5zM601 306q1 -2 4 -2h1q4 1 2 5l-7 22q-2 3 -5.5 2t-2.5 -5zM597 342l-8 22q-2 4 -5.5 2.5t-1.5 -5.5l7 -21q1 -3 4 -3h1q4 2 3 5zM650 278l-12 -4q-4 -2 -8 -1t-5 -3t3 -4q3 -1 5 -1q4 0 8 1l11 5q4 1 3 4.5t-5 2.5zM624 437l-22 -7q-4 -2 -2 -5q1 -3 3 -3h2l21 8
q4 1 2.5 5t-4.5 2zM288 352l-22 -8q-3 -1 -2 -5q1 -2 4 -2h1l22 8q3 1 2 4.5t-5 2.5zM242 496h1l22 8q3 1 2 5t-5 2l-22 -7q-3 -2 -2 -5t4 -3zM275 507q11 1 16 -8q1 -3 3 -3q1 0 2 1q3 2 2 5q-8 14 -23 13q-4 0 -3.5 -4t3.5 -4zM208 484h2l21 8q4 1 2.5 5t-4.5 2l-22 -7
q-4 -2 -2 -5q1 -3 3 -3zM295 488l8 -22q1 -3 3 -3h2q3 2 2 5l-8 22q-1 4 -4.5 2.5t-2.5 -4.5zM175 472q1 0 1 1l22 7q4 2 2.5 5.5t-5.5 2.5l-21 -8q-4 -1 -3 -5q1 -3 4 -3zM322 364l-22 -8q-4 -1 -2 -5q0 -3 3 -3q1 0 1 1l22 7q4 2 2.5 5.5t-4.5 2.5zM307 454l8 -22
q1 -2 3 -2h2q3 1 2 5l-8 22q-1 3 -4.5 2t-2.5 -5zM330 364q1 -1 2 -1q2 0 3 2q5 6 5 14q0 4 -1 8l-1 3q-1 4 -5 2.5t-2 -5.5l1 -2q1 -3 1 -6q0 -5 -4 -10q-2 -3 1 -5zM319 421l7 -22q1 -2 4 -2h1q4 1 3 5l-8 21q-1 4 -5 2.5t-2 -4.5zM144 455h2q3 0 3 2q3 7 10 10l6 1
q3 2 2 5.5t-5 2.5l-5 -2q-11 -4 -15 -14q-1 -4 2 -5zM255 340l-22 -8q-3 -1 -2 -5q1 -2 3 -2h2l21 8q4 1 3 4.5t-5 2.5zM189 334l-5 14q-1 3 -4.5 2t-2.5 -5l5 -14q2 -5 5 -8q1 -2 3 -2t3 2q2 2 0 5q-3 3 -4 6zM180 359l-8 22q-1 3 -4.5 2t-2.5 -5l8 -21q1 -3 3 -3h2
q3 1 2 5zM156 426l-7 19v2q-1 4 -5 3t-3 -5q1 -1 1 -2l7 -20q1 -2 4 -2h1q4 1 2 5zM224 321q4 1 2.5 4.5t-4.5 2.5l-12 -4q-4 -2 -9 -1q-3 1 -4 -2.5t3 -4.5q2 -1 5 -1q4 0 8 2zM168 392l-8 22q-1 4 -4.5 2.5t-2.5 -4.5l8 -22q1 -3 4 -3l1 1q3 1 2 4zM324 508l7 -20
q1 -2 4 -2h1q4 1 2 5l-7 19v2q-1 4 -5 3t-3 -5q1 -1 1 -2zM337.5 481.5q-3.5 -1.5 -2.5 -4.5l8 -22q1 -3 4 -3h1q4 2 2 5l-8 22q-1 4 -4.5 2.5zM512 429q1 -1 2 -1q2 0 3 2q5 6 5 14q0 4 -1 8l-1 3q-1 4 -5 2.5t-2 -5.5l1 -2q1 -3 1 -6q0 -5 -4 -10q-2 -3 1 -5zM327 520
q0 -1 1 -1q3 0 4 3q2 7 9 9l6 2q3 2 2 5.5t-5 2.5l-5 -2q-11 -4 -15 -14q-1 -4 3 -5zM416 390h2l22 8q3 1 2 4.5t-5 2.5l-22 -8q-3 -1 -2 -5q1 -2 3 -2zM483 413q1 0 1 1l22 7q4 2 2.5 5.5t-4.5 2.5l-22 -8q-4 -1 -2 -5q0 -3 3 -3zM450 402h1l22 8q4 1 2.5 4.5t-5.5 2.5
l-21 -8q-4 -1 -3 -5q1 -2 4 -2zM357 537h1l22 8q4 2 2.5 5.5t-5.5 1.5l-21 -7q-4 -2 -3 -5t4 -3zM477 552l8 -21q1 -3 3 -3h2q3 2 2 5l-8 22q-1 4 -4.5 2.5t-2.5 -5.5zM489 519l8 -22q1 -2 3 -2h2q3 1 2 5l-8 22q-1 3 -4.5 2t-2.5 -5zM457 572q11 1 16 -9q1 -2 3 -2q1 0 2 1
q3 2 2 5q-8 14 -23 13q-4 0 -3.5 -4t3.5 -4zM501 486l8 -22q0 -3 3 -3q1 0 1 1q4 1 3 5l-8 21q-1 4 -5 2.5t-2 -4.5zM347 443l8 -22q1 -2 4 -2h1q3 1 2 5l-8 22q-1 3 -4.5 2t-2.5 -5zM366 412q-1 4 -4.5 2.5t-2.5 -4.5l5 -14q2 -5 5 -8q1 -2 3 -2t3 2q2 2 0 5q-3 2 -4 6z
M379 385q-1 -4 3 -4q2 -1 5 -1q4 0 8 2l11 4q4 1 2.5 4.5t-4.5 2.5l-12 -4q-4 -2 -9 -1q-3 1 -4 -3zM424 561h1l22 8q3 1 2 5t-5 2l-22 -7q-3 -2 -2 -5t4 -3zM390 549h2l21 8q4 1 2.5 5t-4.5 2l-22 -7q-4 -2 -2 -5q1 -3 3 -3zM551 452q1 -1 3 -1t3 1q3 3 0 6q-3 2 -4 6
l-5 13q-1 4 -4.5 2.5t-2.5 -4.5l5 -14q2 -5 5 -9zM506 573l7 -20q1 -3 4 -3l1 1q4 1 2 5l-7 19v2q-1 4 -4.5 3t-3.5 -5q1 -1 1 -2zM686 494l-22 -8q-4 -1 -2 -5q1 -3 3 -3q1 0 2 1l21 7q4 2 2.5 5.5t-4.5 2.5zM509 585q0 -1 1 -1q3 0 4 3q2 7 9 9l6 2q3 2 2 5.5t-5 2.5
l-5 -2q-11 -4 -15 -14q-1 -4 3 -5zM619 470l-22 -8q-3 -1 -2 -5q1 -2 4 -2h1l22 8q3 1 2 4.5t-5 2.5zM519.5 546.5q-3.5 -1.5 -2.5 -5.5l8 -21q1 -3 4 -3h1q4 2 2 5l-7 22q-2 4 -5.5 2.5zM639 637q11 1 16 -9q1 -2 3 -2q1 0 2 1q4 2 2 5q-8 14 -23 13q-4 0 -3.5 -4t3.5 -4z
M671 584l8 -22q1 -2 3 -2h2q3 1 2 5l-8 22q-1 3 -4.5 2t-2.5 -5zM606 626h1l22 8q3 1 2 4.5t-5 2.5l-22 -8q-3 -1 -2 -4t4 -3zM683 551l8 -22q1 -3 3 -3q1 0 2 1q3 1 2 5l-8 21q-1 4 -4.5 2.5t-2.5 -4.5zM695 517l1 -2q1 -3 1 -6q0 -5 -4 -10q-2 -3 1 -5q1 -1 2 -1q2 0 3 1
q5 7 5 15q0 4 -1 8l-1 3q-1 4 -5 2.5t-2 -5.5zM659 617l8 -21q1 -3 3 -3h2q3 2 2 5l-8 22q-1 4 -4.5 2.5t-2.5 -5.5zM572 614h2l21 8q4 1 2.5 5t-4.5 2l-22 -7q-4 -2 -2 -5q1 -3 3 -3zM652 482l-21 -8q-4 -1 -3 -5q1 -3 4 -3q1 0 1 1l22 7q4 2 2.5 5.5t-5.5 2.5zM529 508
l8 -22q1 -2 4 -2h1q3 1 2 5l-8 22q-1 3 -4.5 2t-2.5 -5zM561 450q-1 -4 3 -4q2 -1 5 -1q4 0 8 2l11 4q4 1 2.5 4.5t-4.5 2.5l-12 -4q-4 -2 -9 -1q-3 1 -4 -3zM539 602h1l22 8q4 1 2.5 5t-5.5 2l-21 -7q-4 -2 -3 -5t4 -3z" />
    <glyph glyph-name="empty6" unicode="&#xe639;" 
d="M669 -66h-241q-7 0 -7 7t7 7h241q7 0 7 -7t-7 -7zM657 728q-12 0 -16 12l-17 57q-2 7 1 13.5t10 8.5t13 -1.5t8 -10.5l18 -57q2 -7 -1.5 -13t-10.5 -8q-2 -1 -5 -1zM857 591h-2l-59 8q-7 1 -11.5 6.5t-3.5 12.5t6.5 11.5t12.5 3.5l60 -8q7 -1 11 -6.5t3 -12.5
q-2 -15 -17 -15zM756 702q-7 0 -12 5.5t-5 12.5t5 12l48 44q5 5 12 5t12 -5t4.5 -12.5t-5.5 -11.5l-47 -45q-5 -5 -12 -5zM914 -19h-363v5q-2 8 -11 6q-24 -6 -49 -9q-2 0 -4 -2h-45h-2q-13 1 -25 2q-9 1 -10 -7.5t8 -9.5q13 -2 26 -2h3h472q9 0 9 8.5t-9 8.5v0zM609 614
q22 -12 42 -27q3 -1 5 -1q5 0 7 3q5 7 -1 12q-22 16 -45 28q-8 4 -12 -3.5t4 -11.5zM611 20q-22 -12 -45 -20q-8 -3 -5 -11q2 -6 8 -6q1 0 2 1q25 8 49 21q7 4 3 11.5t-12 3.5v0zM462 652q25 -1 50 -5h1q7 0 8 7q2 8 -7 10q-25 4 -52 5q-8 0 -8.5 -8.5t8.5 -8.5zM538 641
q24 -6 47 -16q2 -1 3 -1q6 0 8 6q3 8 -4 11q-25 10 -50 17q-8 2 -10.5 -6.5t6.5 -10.5zM384 645h2q24 5 49 6q9 1 8.5 9.5t-9.5 7.5q-26 -1 -52 -7q-8 -1 -6 -10q1 -6 8 -6zM672 571q19 -16 36 -35q2 -3 6 -3q3 0 6 2q6 5 1 12q-18 20 -38 37q-6 5 -11.5 -1.5t0.5 -11.5z
M762 448q10 -23 17 -47q1 -6 8 -6h2q8 2 6 10q-7 26 -17 50q-3 8 -11 4.5t-5 -11.5zM724 515q15 -20 27 -43q2 -4 7 -4q3 0 4 1q8 4 4 11q-12 24 -28 45q-5 7 -12 2t-2 -12zM791.5 385.5q-8.5 -1.5 -7.5 -10.5q0 -1 1 -3q1 -8 8 -8h2q8 2 7 10q-1 2 -1 4q-1 9 -9.5 7.5z
M738 122q-7 5 -12 -2q-15 -20 -32 -38q-6 -6 0 -12q2 -3 5.5 -3t6.5 3q18 19 34 40q5 7 -2 12zM744 130q2 -1 4 -1q5 0 7 4q14 23 24 47q3 8 -4.5 11t-11.5 -4q-9 -23 -22 -45q-5 -7 3 -12zM674 63q-18 -16 -40 -30q-7 -4 -2 -11q2 -4 7 -4q3 0 5 1q22 14 42 32
q6 5 0.5 11.5t-12.5 0.5zM121 229q8 2 6 10q-5 24 -7 49q-1 9 -9.5 8t-8.5 -9q3 -27 9 -52q1 -7 8 -7q1 0 2 1zM166 144q-4 7 -11.5 2.5t-3.5 -11.5q14 -23 31 -43q2 -3 6 -3q3 0 6 2q6 5 1 12q-16 19 -29 41zM153 167q-11 22 -19 46q-2 8 -10 5.5t-6 -10.5q8 -25 20 -49
q2 -4 8 -4q2 0 3 1q8 3 4 11v0zM250 50q-20 15 -37 33q-6 6 -12.5 0t-0.5 -12q19 -19 40 -35q2 -2 5 -2q4 0 7 4q5 7 -2 12v0zM388 -13q-24 5 -48 13q-8 3 -11 -5t6 -11q24 -9 50 -14h2q7 0 8 7q2 8 -7 10zM316 10q-23 11 -44 24q-7 5 -12 -2t2 -12q23 -14 47 -25q1 -1 3 -1
q6 0 8 5q3 8 -4 11zM141 459q1 -1 3 -1q6 0 8 5q11 22 25 43q5 7 -2 12t-12 -2q-15 -22 -26 -46q-4 -7 4 -11zM181 526q3 -2 6 -2q4 0 6 3q16 20 34 37q7 6 1 12t-12 0q-19 -17 -36 -38q-5 -6 1 -12zM243 579q3 0 5 2q20 15 41 28q8 4 3.5 11.5t-11.5 3.5q-23 -13 -44 -30
q-6 -5 -1 -12q2 -3 7 -3zM310 620q1 0 3 1q23 10 47 17q8 3 5.5 11t-10.5 6q-25 -8 -49 -19q-8 -3 -4 -11q2 -5 8 -5zM110 306v0q8 0 8 9v1q0 25 4 49q1 8 -7.5 9.5t-9.5 -7.5q-4 -25 -4 -51v-1q0 -9 9 -9zM116 384h2q7 0 9 7q5 24 14 48q4 8 -4 11t-12 -5q-9 -25 -15 -50
q-2 -9 6 -11zM415 198l52 19l-12 34l-52 -20q-33 -13 -41 9q-8 21 25 34l29 11l-110 82q-14 10 -18.5 14.5t-6.5 11.5q-5 12 -0.5 22t16.5 14q11 4 21 0t26 -17l119 -88l25 136q1 7 3 16q1 9 3 15.5t6.5 11.5t13.5 9q11 4 21 -0.5t14 -14.5q3 -8 2.5 -15.5t-2.5 -20.5
l-25 -135l29 11q33 13 41 -9q8 -21 -24 -34l-52 -20l12 -33l52 20q33 12 41 -9q8 -22 -24 -34l-52 -20l7 -18q17 -47 -14 -59t-49 35l-7 18l-52 -19q-33 -13 -41 8q-8 22 24 35z" />
    <glyph glyph-name="interview" unicode="&#xe630;" 
d="M517 -44v409l188 69q-54 141 -144 280l-507 -314q-53 -33 -29 -85q17 -36 39 -77q26 -48 80 -26q61 25 277 114v-371q-55 -3 -90 -11t-36 -18v1v-17q0 -7 21.5 -14t64.5 -11t96 -4q54 0 97 4t64.5 11t21.5 14v16q0 11 -40.5 19.5t-102.5 10.5zM675 852q-75 -41 -102 -123
q93 -142 149 -288q28 -8 56 -8q53 0 101 26q-11 68 -33.5 130.5t-45 103.5t-50 77t-44 53t-31.5 29zM778 879q-34 0 -66 -11q24 -21 48 -50t55 -76t57 -115.5t40 -145.5q38 31 60.5 76.5t22.5 98.5q0 92 -63.5 157.5t-153.5 65.5z" />
    <glyph glyph-name="alipay" unicode="&#xe64d;" 
d="M490 247q-43 -54 -93.5 -86.5t-92.5 -42.5t-82.5 -9t-63 7t-34.5 12q-27 7 -44.5 31.5t-20.5 54t12 59.5t48 45q54 17 109 19t106 -9.5t89.5 -26t81.5 -35.5q-13 -19 -15 -19v0zM652 299q30 53 53 111.5t31 90.5l8 32h-230v86h269v34h-267v129h-123v-129h-244v-38h244
v-87h-205v-37h420v-5l-3 -12l-3 -12q-10 -47 -52 -134q-57 22 -107.5 36.5t-87.5 21.5t-71 9t-55 0.5t-41.5 -6t-30 -8.5t-20.5 -9.5t-12 -5.5q-42 -30 -65.5 -63.5t-27 -64t3 -60.5t22 -54t32 -42t32 -28t22.5 -9q276 -59 459 158q2 4 19 -5q31 -16 128.5 -63t180 -85.5
l82.5 -38.5v182q-71 6 -361 106v0zM652 299z" />
    <glyph glyph-name="record" unicode="&#xe61c;" 
d="M573 701v62q0 25 -18 43t-43 18t-43 -18t-18 -43v-62h-52q-12 0 -21 -9t-9 -21.5t9 -21.5t21 -9h226q12 0 21 9t9 22t-9 21.5t-21 8.5h-52zM559 -36h-401q-17 0 -29 12t-12 29v717q0 17 12 29t29 12h231v-41h-211q-8 0 -14 -6t-6 -15v-673q0 -9 6 -15t14 -6h328zM895 394
v328q0 17 -12 29t-29 12h-219v-41h199q8 0 14 -6t6 -15v-342zM348 456q0 8 6 14t15 6h286q9 0 15 -6t6 -14.5t-6 -14.5t-15 -6h-286q-9 0 -15 6t-6 15v0zM348 353q0 9 6 15t15 6h286q9 0 15 -6t6 -14.5t-6 -14.5t-15 -6h-286q-9 0 -15 6t-6 14v0zM512 742q8 0 14 6t6 14.5
t-6 14.5t-14 6t-14 -6t-6 -14.5t6 -14.5t14 -6v0zM922 302q-7 -3 -17.5 -9t-40.5 -28t-56 -49t-55 -72.5t-46 -97.5q-5 9 -20.5 32t-28.5 41.5l-13 18.5l-102 -61q92 -62 164 -133q4 5 29 40t49.5 66.5t62.5 69.5t74 59v123z" />
    <glyph glyph-name="answer" unicode="&#xe715;" 
d="M512 817q-129 0 -237.5 -57.5t-172 -157.5t-63.5 -218q0 -110 59 -213q7 -13 4 -25l-43 -136q-6 -19 8 -32t33 -8l138 48q15 6 28 -4q114 -65 248 -65q129 0 237.5 57.5t172 157.5t63.5 218q-2 119 -66 219.5t-172.5 158t-236.5 57.5zM738 480l-240 -236
q-14 -14 -33.5 -14t-33.5 14l-116 114q-7 8 -7 17t7 15l34 31q7 8 16.5 8t16.5 -8l83 -82l207 205q16 16 33 0l33 -32q6 -6 6 -16t-6 -16z" />
    <glyph glyph-name="empty3" unicode="&#xe67f;" horiz-adv-x="1053" 
d="M93 294q-2 -4 -2 -9v-10q1 -13 2 -27q3 -45 8 -84q4 -33 10 -59q14 -63 29.5 -73.5t78.5 0.5q27 4 59 12q38 10 81 24q13 5 26 9q5 2 9 3q5 2 8 6l339 504q-8 -12 4 -20l-332 224q12 -8 20 4l-340 -504v0zM429 818l332 -224q12 -8 4 -20l-339 -504q-9 -12 -22 -17
q-5 -1 -13 -4t-32.5 -11t-47.5 -14.5t-53 -13.5t-54 -10t-46 -1.5t-33 9.5q-49 33 -62 249l-1 27q-1 14 8 26l339 504q8 12 20 4v0zM359 739l356 -240l-17 -25l-356 240zM382 288q-38 53 -102 67q-35 7 -61 2q-11 -2 -9 -13q1 -5 5 -8t9 -2q2 0 5 1h2.5h2.5h0.5h1.5v0h4
q9 0 19 -1q6 0 11 -1q1 0 2 -0.5l1 -0.5h1v0v0q4 -1 7 -2q29 -8 53 -26q2 -2 6 -5l1 -1h1q0 -1 1 -1.5t1 -1.5q6 -5 11 -11q4 -4 8 -10q1 -2 4 -5v-1q1 -1 2 -4q9 -13 15 -29v-1l0.5 -1l0.5 -1q0 -2 1 -4q0 -1 0.5 -2t0.5 -2q2 -11 14 -9q5 1 7.5 5t1.5 8q-6 29 -28 60v0v0
v0zM327 431q9 2 14 9.5t3 17t-9.5 14.5t-17 3.5t-14.5 -9t-3 -17t9.5 -14.5t17.5 -4v0v0v0zM483 372q-8 5 -17.5 3.5t-14.5 -9.5t-3 -17t10 -14.5t17 -3.5t14.5 9.5t3.5 16.5t-10 15v0v0v0zM523 -53q15 0 23 13l99 143q-2 -4 -7.5 -3.5t-7.5 3.5l93 -141q9 -12 23 -12h63
q15 0 23 12l41 62q-3 -4 -8.5 -4t-7.5 4l38 -61q8 -13 23 -13h54q6 0 10.5 4t4.5 10t-4.5 10t-10.5 4h-54h1l-38 61q-6 9 -16 9.5t-16 -8.5l-41 -62h-6.5h-15.5h-18h-15h-7q1 0 -8.5 14.5t-23.5 35.5t-27.5 41.5t-23.5 35.5l-9 14q-6 9 -16 9t-16 -8l-100 -144h-12.5h-34.5
h-50.5h-60h-62.5h-60h-50.5h-35t-12.5 0q-6 0 -10.5 -4t-4.5 -10t4.5 -10.5t10.5 -4.5h379v0z" />
    <glyph glyph-name="empty7" unicode="&#xe684;" 
d="M696 704h-14v-132h26v96l54 -96h28v132h-26v-92l-53 92h-15zM920 689q-17 19 -46.5 19t-46.5 -19t-17 -51t17 -50.5t46.5 -18.5t46.5 18.5t17 50.5t-17 51v0zM900 604q-10 -12 -26.5 -12t-26 12t-9.5 34t9.5 34.5t26 12.5t26 -12.5t9.5 -34.5t-9 -34v0zM362 488
q-15 -20 -40.5 -33.5t-50.5 -18.5t-50 -8.5t-38.5 -2t-16.5 0.5q-5 0 -9 -3.5t-4.5 -9t3 -9.5t8.5 -4q8 -1 19 -1q22 0 44.5 2.5t53 9t58 22.5t44.5 39q8 11 -2.5 18.5t-18.5 -2.5v0zM603 488q-7 10 -18 2.5t-3 -18.5q17 -23 44.5 -39t58.5 -22.5t53.5 -9t43.5 -2.5
q11 0 19 1q6 0 9.5 4t3 9.5t-4.5 9t-10 3.5q-5 0 -16 -0.5t-38 2t-51 8t-50 19t-41 33.5v0zM394 523q-1 6 -5.5 9t-9.5 2q-27 -5 -43 5q-11 6 -18 -5t4 -18q17 -10 43 -10q9 0 18 2q6 1 9 5.5t2 9.5v0zM638 513q12 7 6 18.5t-18 5.5q-24 -13 -42 -9q-13 3 -16 -9.5t10 -15.5
q6 -2 13 -2q25 0 47 12v0zM660 298q-8 10 -18 2q-8 -6 -22.5 -15.5t-56.5 -24.5t-83 -15q-26 0 -50 6t-39 13t-28.5 16t-17.5 12.5t-6 5.5q-9 10 -18.5 1t-1.5 -18l8 -8t20 -15t32.5 -18t44.5 -14.5t56 -6.5q28 0 57 6t48.5 14t38 18t24.5 14.5l10 7.5q10 8 2 19v0zM872 547
q-5 12 -17 7.5t-8 -16.5q22 -62 22 -128q0 -79 -31.5 -151.5t-89.5 -125.5q-54 -5 -106 -42q-32 -23 -53.5 -44.5t-30.5 -35.5t-11.5 -27t-1.5 -18.5t3 -9.5q4 -7 12 -7q3 0 6 1q12 6 6 17q1 2 -0.5 4.5t3 12.5t11 20.5t25.5 28.5t46 37q35 24 70 32t58 3.5t32 -15.5t-1 -24
q-87 -23 -101 -65q-9 -27 7 -47q9 -10 19 -2t2 18q-7 10 -3 22q10 30 86 50q4 1 6 3q14 15 15.5 31.5t-10.5 30.5q-16 20 -53 25q53 56 82 128.5t29 149.5q0 70 -23 137v0zM358 91q-64 45 -128 42q-57 54 -88.5 126t-31.5 151q0 103 51 190.5t138.5 138t189.5 50.5
q118 0 215 -66q10 -7 17.5 4t-3.5 18q-103 71 -229 71q-110 0 -203.5 -54.5t-147.5 -148t-54 -203.5q0 -79 29.5 -152t84.5 -130q-23 -7 -35 -21t-10.5 -30.5t15.5 -31.5q2 -2 6 -3q76 -20 86 -49q4 -13 -3 -23q-8 -10 2 -18t19 2q16 20 7 47q-14 42 -101 65q-11 13 -1 24
q9 11 31.5 15.5t58 -3.5t70.5 -32q26 -19 44.5 -36t25.5 -28t12 -20.5t3.5 -12.5t-0.5 -5v0q-6 -12 6 -18q3 -1 6 -1q8 0 12 7q2 4 3 9.5t-1.5 18.5t-11.5 27t-30.5 35.5t-53.5 44.5v0z" />
    <glyph glyph-name="wallet" unicode="&#xe663;" 
d="M510.5 -8q-180.5 0 -264 64.5t-83.5 202.5q0 109 75.5 212.5t182.5 140.5h181q105 -37 180.5 -140.5t75.5 -212.5q0 -138 -83.5 -202.5t-264 -64.5zM428 562q-40 -15 -76 -44q-41 -31 -73 -74q-32 -44 -49 -91q-17 -48 -17 -94q0 -59 16 -99q15 -38 46 -63q34 -26 89 -40
q60 -15 146.5 -15t146.5 15q55 14 89 40q31 25 46 63q16 40 16 99q0 46 -17 94q-17 47 -49 91q-32 43 -73 74q-37 29 -76 44l-164 1zM503 127q-14 0 -23.5 9.5t-9.5 23.5q0 3 1 6l1 6h-2v30h-64q-11 0 -18.5 7.5t-7.5 18t7.5 17.5t18.5 7h4v1h60v39h-64q-11 0 -18.5 7.5
t-7.5 18t7.5 17.5t18.5 7h4v0h54l1 4l2 4l2 3l-70 70q-5 5 -3 13.5t9 15.5q10 10 20 10q6 0 10 -4l69 -69l64 69q5 5 13 5q11 0 20 -9q17 -17 6 -29l-71 -73l-1 -4v-4l4 -2h60h1q11 0 18.5 -7.5t7.5 -17.5t-7.5 -17.5t-18.5 -7.5h-3h-62v-39h64l1 -1q11 0 18.5 -7t7.5 -17.5
t-7.5 -18t-18.5 -7.5h-65v-31v-2v-2q1 -4 1 -7q0 -14 -10 -23.5t-23 -9.5v0zM423 642l-57 86v1v3q-1 3 -1 5q0 15 12 20l2 2q72 17 132 18h1q59 0 130 -18v-1l2 -1q12 -5 12 -20q0 -2 -1 -5v-1v-3l-57 -86h-175zM511 727q-31 0 -72 -7l-8 -1l19 -27h121l19 28l-7 1
q-40 6 -71 6h-1z" />
    <glyph glyph-name="employee" unicode="&#xe615;" 
d="M464 1q-1 17 44 94t92 146t52 69q42 -2 73.5 -23.5t47 -55t22 -70.5t2.5 -75q0 -3 -0.5 -14.5t-1.5 -22.5t-2.5 -22t-6 -18t-10.5 -7q-29 0 -102 -2t-111 -2t-99 3v0zM572 731q49 -19 82 -60q7 -3 21.5 -35.5t19.5 -68.5q2 -16 3 -47q-3 -86 -57 -146.5t-129 -60.5
q-77 0 -131.5 63.5t-54.5 152.5q0 61 27 112t72 79q29 17 64 21q-23 0 -35 2.5t-15 6.5t-3 10q0 19 22 32.5t54 13.5t54 -13.5t22 -32.5q0 -16 -16 -29zM416 599q-38 0 -48 -51q-11 -62 24 -124q43 -75 124 -75h3q26 0 51 15t41 36.5t26 44.5t9.5 42t-11.5 25
q-12 6 -111.5 46.5t-104.5 40.5h-3v0zM284 157q0 -17 33.5 -25.5t67.5 -5.5t35 13q0 6 -7 11t-21 9t-24.5 6.5t-28 6t-21.5 4.5q-9 0 -21.5 -6.5t-12.5 -12.5zM587 145q0 -9 9 -13.5t24 -5t28.5 0t28.5 1.5t18 1q20 0 34 28q-5 8 -32 13.5t-45 5.5q-14 0 -39.5 -10.5
t-25.5 -20.5v0zM223 161q0 51 43.5 101.5t98.5 50.5q5 0 47 -68.5t55 -92.5q-8 -27 -23 -56t-18 -38q-1 -3 -4 -9q-9 -22 -15.5 -30t-24.5 -12t-58 -3h-64q-16 0 -25 12.5t-11.5 34.5t-3 40t1 42t1.5 28v0zM799 278q-16 21 -58 46t-70 25h-16q-24 0 -48 -23t-39.5 -51.5
t-32.5 -56.5t-28 -35q-13 8 -31 37.5t-33.5 59t-40 54t-50.5 24.5t-66 -28.5t-59 -51.5q-50 -61 -48 -147l10 -168l636 -1q15 27 19 89.5t-7.5 129t-37.5 97.5z" />
    <glyph glyph-name="qanda" unicode="&#xe614;" 
d="M540 401h-63q-4 0 -6 -2q-3 -3 -2 -6v-58q0 -3 2 -5.5t6 -2.5h63q3 0 6 3q2 2 2 5v58q0 3 -2 6q-4 2 -6 2zM868 142q78 112 78 247q0 88 -34.5 168t-92.5 138.5t-138.5 92.5t-168.5 34t-168.5 -34t-138.5 -92.5t-92.5 -138.5t-34.5 -168t34.5 -168.5t92.5 -138.5
t138.5 -92.5t168.5 -34.5q106 0 200 49l160 -48q19 -5 32.5 8.5t7.5 31.5l-44 146v0zM388 223q0 -11 -7 -18q-6 -7 -16 -7t-16 6q-6 8 -6 19v251q0 11 6 17t16 6t16 -6q7 -6 7 -17v-251zM415 490q-10 1 -17 11q-18 22 -31 33q-9 8 -11 17q0 9 6 17.5t16 8.5q9 1 19 -6
q46 -38 45 -60q-1 -10 -9 -16q-9 -6 -18 -5zM454 288q-14 0 -22 10q-9 12 -9 26v95q0 12 9 22q9 9 22 9h103q16 0 27 -10q9 -8 9 -21v-95q0 -15 -11 -26q-11 -10 -25 -10h-103zM675 261q0 -25 -20 -46q-23 -23 -94 -13q-11 4 -16 13q-4 9 -1 18q9 22 32 14q31 -4 41 2
q13 9 13 28v211q0 13 -7 20q-6 6 -19 6h-125q-12 1 -19 7q-6 7 -6 16q0 10 6 16q8 7 19 7h144q28 0 40 -14t12 -39v-246v0z" />
    <glyph glyph-name="product" unicode="&#xe691;" 
d="M848 225h-368q-15 0 -27 -11l-130 -117q-2 -2 -5 -2h-149q-18 0 -30.5 -12.5t-12.5 -30.5v-43q0 -18 12.5 -31t30.5 -13h224q16 0 27 10l10 7l53 43h3h362q17 0 28.5 12t11.5 28v119q0 17 -12 29t-28 12zM844 63q0 -3 -4 -3h-314l8 6q6 5 6.5 12t-4.5 12q-4 6 -11.5 6.5
t-12.5 -3.5l-112 -90q-2 -1 -4 -1h-219q-8 0 -8 7v41q0 7 8 7h145q16 0 28 10l128 112q2 1 3 1h359q4 0 4 -4v-113zM288 137q45 0 76.5 31.5t31.5 76t-31.5 76t-76.5 31.5t-76.5 -31.5t-31.5 -75.5q0 -45 31.5 -76.5t76.5 -31.5zM288 310q27 0 46 -19t19 -45.5t-19 -45.5
t-46 -19t-46 19t-19 45.5t19 45.5t46 19zM458 260q12 -12 30.5 -14t32.5 8l28 18v0h1l41 28v-45q0 -7 5.5 -12t13 -5t14 6.5t6.5 14.5v72l40 28q6 4 8 12.5t-2 14.5t-13.5 7t-15.5 -3l-119 -83l-27 -20q-9 -6 -15 1l-8 10q-8 9 0 17l168 181q19 22 42 19t35 -24
q46 -83 64 -212q1 -7 9 -11.5t16 -3.5q7 1 11.5 7t3.5 13q-20 137 -70 227q-21 38 -64.5 43t-73.5 -27l-172 -187q-13 -14 -14 -33t12 -32zM596 569q44 0 76.5 30t36.5 74q17 9 28 25.5t11 36.5q0 28 -20 47.5t-48 19.5q-22 0 -41 -13q-21 8 -43 8q-48 0 -81.5 -33.5
t-33.5 -80.5t33.5 -80.5t81.5 -33.5zM598 758q17 0 36 -10q14 -7 22 6h0.5h0.5q8 8 20 8q13 0 22 -9t9 -21q0 -14 -11 -23t-25 -7q-7 1 -12.5 -3t-6.5 -11t3 -12.5t11 -7.5h3q-5 -25 -25.5 -41.5t-46.5 -16.5q-30 0 -52 21.5t-22 52.5q0 30 21.5 52t52.5 22z" />
    <glyph glyph-name="empty1" unicode="&#xe604;" 
d="M619 -66h-231q-7 0 -7 6.5t7 6.5h231q6 0 6 -6.5t-6 -6.5zM596 731q-13 0 -16 13l-13 56q-2 6 2 12t10.5 7.5t12 -2t7.5 -10.5l13 -56q1 -6 -2.5 -12t-10.5 -7q-1 -1 -3 -1zM777 588h-3l-56 12q-7 1 -10.5 6.5t-2 12t7 10.5t11.5 3l56 -12q7 -1 10.5 -6.5t2.5 -12.5
q-2 -13 -16 -13zM688 700q-8 0 -13 6q-10 13 3 23l48 40q12 10 22.5 -2.5t-2.5 -23.5l-48 -39q-4 -4 -10 -4zM846 -20h-385l270 98q25 9 37 34t2 51l-17 48q-4 11 -14.5 7t-7.5 -15l18 -48q6 -17 -1.5 -33.5t-24.5 -22.5l-304 -110q-17 -6 -33 1.5t-23 24.5l-167 463
q-6 17 1.5 33t24.5 23l303 110q17 6 33.5 -2t22.5 -25l69 -189q4 -11 14.5 -7t6.5 15l-68 189q-10 26 -35 37.5t-50 2.5l-304 -110q-26 -9 -37.5 -34t-2.5 -51l168 -463q13 -34 49 -42q2 -1 4 -1h6h3.5h3.5h438q8 0 8 8t-8 8v0zM766 468l-17 10q-6 3 -12.5 -0.5t-10.5 -10.5
l-148 -272q-1 -2 -1 -4l1 -30h-1l-46 -18q-4 -1 -3 -6q2 -3 5 -3h2l44 17v-1q0 -6 5 -3l35 21q2 1 3 3l147 272q4 8 3.5 15t-6.5 10zM436 108l-33 -12q-5 -2 -3 -7q1 -3 5 -3h1l34 13q4 2 2.5 6.5t-6.5 2.5v0zM507 134l-46 -17q-5 -1 -3 -6q1 -3 5 -3h1l46 17q5 2 3 6.5
t-6 2.5zM372 210q-4 0 -5 3q-1 5 3 6l29 11q5 2 6.5 -2.5t-3.5 -6.5l-28 -11h-2zM425 230q-3 0 -5 3q-1 5 3 6l46 17q5 2 6.5 -2.5t-2.5 -6.5l-46 -17h-2zM495 256q-3 0 -4 3q-2 5 3 6l45 18q5 1 6.5 -3.5t-2.5 -6.5l-46 -17h-2zM566 282q-4 0 -5 3q-2 5 3 7l46 17
q4 1 6 -3.5t-3 -5.5l-46 -18h-1z" />
    <glyph glyph-name="enoter" unicode="&#xe749;" 
d="M918 -12l-133 134q76 84 95 196t-23 213q-1 7 -7.5 11.5t-13.5 4.5q-10 0 -16.5 -6t-6.5 -17q0 -5 2 -7q39 -96 18 -200t-95 -179q-51 -49 -116 -76t-134.5 -27t-134 27t-113.5 76q-50 50 -76 115.5t-26 132.5t26 132.5t76 115.5q49 49 113.5 76t134.5 27q137 0 241 -96
q7 -7 16 -7q11 0 17 6.5t6 16.5t-7 17q-55 53 -126.5 81.5t-146.5 28.5q-78 0 -151 -30t-130 -87t-86.5 -131.5t-29.5 -149.5t29.5 -149.5t86.5 -131.5t130.5 -87t150.5 -30q71 0 139.5 26t124.5 75l133 -133q7 -7 16.5 -7t16.5 7t7 16t-7 16v0zM745 393h-96q-12 0 -19 -7
l-18 -19l-141 122q-2 2 -9 2q-18 0 -23 -11l-85 -99h-84q-10 0 -16.5 -6.5t-6.5 -17t6.5 -16.5t16.5 -6h96q16 -4 23 11l75 89l136 -117l5 -2h16q1 0 3.5 1t3.5 1q2 0 2 2l26 26h89q11 0 17 6.5t6 17.5q0 9 -6.5 16t-16.5 7z" />
    <glyph glyph-name="delete" unicode="&#xe662;" 
d="M596.5 159q-11.5 0 -20 8t-8.5 20v310q0 11 8.5 19.5t20 8.5t19.5 -8.5t8 -19.5v-310q0 -11 -8 -19.5t-19.5 -8.5zM427.5 159q-11.5 0 -20 8t-8.5 20v310q0 11 8.5 19.5t20 8.5t20 -8.5t8.5 -19.5v-310q0 -11 -8.5 -19.5t-20 -8.5zM878 637h-141v56q0 35 -24.5 60
t-59.5 25h-282q-35 0 -59.5 -25t-24.5 -60v-56h-141q-11 0 -19.5 -8t-8.5 -20t8.5 -20t19.5 -8h732q11 0 19.5 8t8.5 20t-8.5 20t-19.5 8zM343 693q0 12 8.5 20.5t19.5 8.5h282q12 0 20 -8.5t8 -20.5v-56h-338v56zM709 -10h-394q-35 0 -59.5 25t-24.5 60v422q0 12 8 20t20 8
t20 -8t8 -20v-422q0 -12 8.5 -20.5t19.5 -8.5h394q12 0 20 8.5t8 20.5v421q0 11 8.5 19.5t20 8.5t19.5 -8.5t8 -19.5v-421q0 -35 -24.5 -60t-59.5 -25z" />
    <glyph glyph-name="case" unicode="&#xe606;" 
d="M463 160l1 -10l473 101l-2 9zM464 130l2 -8l472 101l-1 8zM466 97l1 -8l472 101l-1 8zM958 288l-518 -108q-20 -67 4 -129l507 119l7 -33l-519 -121l-16 2l-342 220q-32 76 0 136l34 5v-12l438 -101q24 61 3 106l-445 93l5 32h2v0l27 9l1 28l407 -102q20 56 3 98l-411 94
v43l324 85l375 -79q26 -49 0 -108l-27 -16l50 -8q28 -51 0 -117l-82 -53l174 -49z" />
  </font>
</defs>
</svg>
